<svg width="224" height="52" viewBox="0 0 224 52" fill="none" xmlns="http://www.w3.org/2000/svg">
<path d="M20.4324 41.5627C20.4324 47.3271 15.8585 52 10.2162 52C4.57396 52 0 47.3271 0 41.5627C0 35.7984 4.57396 31.1255 10.2162 31.1255C15.8585 31.1255 20.4324 35.7984 20.4324 41.5627Z" fill="#0077CC"/>
<path d="M224 41.5627C224 47.3271 219.426 52 213.784 52C208.142 52 203.568 47.3271 203.568 41.5627C203.568 35.7984 208.142 31.1255 213.784 31.1255C219.426 31.1255 224 35.7984 224 41.5627Z" fill="#9C27B0"/>
<path d="M189.946 41.5627C189.946 47.3271 185.372 52 179.73 52C174.087 52 169.514 47.3271 169.514 41.5627C169.514 35.7984 174.087 31.1255 179.73 31.1255C185.372 31.1255 189.946 35.7984 189.946 41.5627Z" fill="#607D8B"/>
<path d="M155.892 41.5627C155.892 47.3271 151.318 52 145.676 52C140.033 52 135.459 47.3271 135.459 41.5627C135.459 35.7984 140.033 31.1255 145.676 31.1255C151.318 31.1255 155.892 35.7984 155.892 41.5627Z" fill="#00C853"/>
<path d="M121.838 41.5627C121.838 47.3271 117.264 52 111.622 52C105.979 52 101.405 47.3271 101.405 41.5627C101.405 35.7984 105.979 31.1255 111.622 31.1255C117.264 31.1255 121.838 35.7984 121.838 41.5627Z" fill="#8FDD92"/>
<path d="M87.7838 41.5627C87.7838 47.3271 83.2098 52 77.5676 52C71.9253 52 67.3514 47.3271 67.3514 41.5627C67.3514 35.7984 71.9253 31.1255 77.5676 31.1255C83.2098 31.1255 87.7838 35.7984 87.7838 41.5627Z" fill="#FF5722"/>
<path d="M54.4865 41.5627C54.4865 47.3271 49.9125 52 44.2703 52C38.628 52 34.0541 47.3271 34.0541 41.5627C34.0541 35.7984 38.628 31.1255 44.2703 31.1255C49.9125 31.1255 54.4865 35.7984 54.4865 41.5627Z" fill="#FFC107"/>
<path d="M3.75654 18.7554C3.03611 18.7554 2.67589 18.3874 2.67589 17.6513V2.0372C2.67589 1.30118 3.03611 0.933169 3.75654 0.933169C4.22825 0.933169 4.62277 1.16975 4.94011 1.6429L11.0123 10.9746L10.5492 11.0534L16.6729 1.6429C16.9645 1.16975 17.4019 0.933169 17.9851 0.933169C18.5683 0.933169 18.8599 1.30118 18.8599 2.0372V17.6513C18.8599 18.3874 18.4997 18.7554 17.7792 18.7554C17.0588 18.7554 16.6986 18.3874 16.6986 17.6513V4.24526L17.3676 4.48184L11.9643 12.6044C11.647 13.0775 11.2096 13.3141 10.6521 13.3141C10.2662 13.3141 9.91452 13.0775 9.59719 12.6044L4.19395 4.48184L4.83719 4.66584V17.6513C4.83719 18.3874 4.47697 18.7554 3.75654 18.7554Z" fill="white"/>
<path d="M33.844 12.9986V13.6295C33.844 14.7598 34.0456 15.5309 34.4487 15.9427C34.8518 16.3458 35.6108 16.5473 36.7258 16.5473H38.8356C39.7104 16.5473 40.358 16.4641 40.7782 16.2976C41.1985 16.1311 41.4772 15.8376 41.6144 15.417C41.7088 15.084 41.8374 14.8299 42.0004 14.6547C42.1719 14.4794 42.4292 14.3918 42.7723 14.3918C43.1325 14.3918 43.4069 14.4882 43.5956 14.681C43.7843 14.8737 43.8443 15.1541 43.7757 15.5221C43.587 16.6087 43.081 17.4192 42.2577 17.9536C41.4343 18.4881 40.2936 18.7554 38.8356 18.7554H36.7258C35.019 18.7554 33.7497 18.3348 32.9178 17.4936C32.0944 16.6525 31.6827 15.3644 31.6827 13.6295V10.5803C31.6827 8.80158 32.0944 7.49602 32.9178 6.66361C33.7497 5.82245 35.019 5.41063 36.7258 5.42815H38.8356C40.5509 5.42815 41.8203 5.84873 42.6436 6.6899C43.467 7.5223 43.8786 8.8191 43.8786 10.5803V11.8946C43.8786 12.6306 43.5184 12.9986 42.798 12.9986H33.844ZM36.7258 7.63621C35.6108 7.61869 34.8518 7.81584 34.4487 8.22766C34.0456 8.63948 33.844 9.42369 33.844 10.5803V10.7906H41.7173V10.5803C41.7173 9.43245 41.5158 8.657 41.1127 8.25394C40.7182 7.84212 39.9591 7.63621 38.8356 7.63621H36.7258Z" fill="white"/>
<path d="M61.1238 18.7554C59.4171 18.7554 58.1477 18.3348 57.3158 17.4936C56.4924 16.6437 56.0808 15.3469 56.0808 13.6032V10.5803C56.0808 8.82787 56.4924 7.53107 57.3158 6.6899C58.1477 5.84873 59.4171 5.42815 61.1238 5.42815H66.1154V1.35375C66.1154 0.617731 66.4756 0.24972 67.196 0.24972C67.9164 0.24972 68.2766 0.617731 68.2766 1.35375V17.6513C68.2766 18.3874 67.9164 18.7554 67.196 18.7554C66.4756 18.7554 66.1154 18.3874 66.1154 17.6513V17.4673C65.7123 17.8879 65.1848 18.2077 64.533 18.4268C63.8812 18.6459 63.0707 18.7554 62.1015 18.7554H61.1238ZM61.1238 16.5473H62.1015C63.2336 16.5473 64.1856 16.3984 64.9575 16.1004C65.7294 15.8025 66.1154 15.3469 66.1154 14.7336V7.63621H61.1238C60.0088 7.63621 59.2498 7.8465 58.8467 8.26709C58.4436 8.67891 58.2421 9.44998 58.2421 10.5803V13.6032C58.2421 14.7423 58.4436 15.5178 58.8467 15.9296C59.2584 16.3414 60.0174 16.5473 61.1238 16.5473Z" fill="white"/>
<path d="M82.1936 3.27266C81.3789 3.27266 80.9715 2.85208 80.9715 2.01091V1.23546C80.9715 0.411821 81.3789 0 82.1936 0H82.9398C83.7203 0 84.1105 0.411821 84.1105 1.23546V2.01091C84.1105 2.85208 83.7203 3.27266 82.9398 3.27266H82.1936ZM82.5538 18.7554C81.8334 18.7554 81.4732 18.3874 81.4732 17.6513V6.53218C81.4732 5.79616 81.8334 5.42815 82.5538 5.42815C83.2743 5.42815 83.6345 5.79616 83.6345 6.53218V17.6513C83.6345 18.3874 83.2743 18.7554 82.5538 18.7554Z" fill="white"/>
<path d="M98.1575 18.7554C97.4371 18.7554 97.0769 18.3874 97.0769 17.6513V2.0372C97.0769 1.30118 97.4371 0.933169 98.1575 0.933169H104.178C105.748 0.933169 106.949 1.36251 107.78 2.2212C108.621 3.07113 109.041 4.29783 109.041 5.90131V6.6899C109.041 8.29337 108.621 9.52445 107.78 10.3831C106.949 11.2331 105.748 11.658 104.178 11.658H99.2382V17.6513C99.2382 18.3874 98.8779 18.7554 98.1575 18.7554ZM99.2382 9.44998H104.178C105.156 9.44998 105.851 9.23968 106.262 8.8191C106.674 8.39852 106.88 7.68879 106.88 6.6899V5.90131C106.88 4.91118 106.674 4.20583 106.262 3.78525C105.851 3.3559 105.156 3.14123 104.178 3.14123H99.2382V9.44998Z" fill="white"/>
<path d="M122.028 18.7554C121.307 18.7554 120.947 18.3874 120.947 17.6513V1.35375C120.947 0.617731 121.307 0.24972 122.028 0.24972C122.748 0.24972 123.109 0.617731 123.109 1.35375V6.96591C124.018 5.94074 125.356 5.42815 127.122 5.42815H127.843C129.558 5.42815 130.827 5.84873 131.651 6.6899C132.474 7.53107 132.886 8.82787 132.886 10.5803V17.6513C132.886 18.3874 132.526 18.7554 131.805 18.7554C131.085 18.7554 130.725 18.3874 130.725 17.6513V10.5803C130.725 9.43245 130.519 8.657 130.107 8.25394C129.704 7.84212 128.949 7.63621 127.843 7.63621H127.122C126.093 7.63621 125.197 7.75888 124.434 8.00422C123.67 8.2408 123.229 8.61757 123.109 9.13454V17.6513C123.109 18.3874 122.748 18.7554 122.028 18.7554Z" fill="white"/>
<path d="M150.088 18.7554C148.647 18.7554 147.575 18.3961 146.872 17.6776C146.168 16.9591 145.817 15.8639 145.817 14.3918C145.817 12.9198 146.164 11.8245 146.859 11.106C147.562 10.3875 148.638 10.0283 150.088 10.0283H155.53C155.478 9.10825 155.242 8.48176 154.822 8.1488C154.402 7.80707 153.681 7.63621 152.661 7.63621H151.168C150.311 7.63621 149.672 7.69755 149.252 7.82022C148.831 7.93413 148.535 8.14442 148.364 8.45109C148.209 8.8191 148.051 9.0732 147.888 9.2134C147.725 9.35359 147.48 9.42369 147.155 9.42369C146.794 9.42369 146.511 9.32293 146.305 9.1214C146.1 8.9111 146.04 8.6351 146.125 8.29337C146.383 7.30325 146.919 6.58037 147.733 6.12474C148.557 5.66035 149.702 5.42815 151.168 5.42815H152.661C154.376 5.42815 155.645 5.84873 156.469 6.6899C157.292 7.53107 157.704 8.82787 157.704 10.5803V17.6513C157.704 18.3874 157.344 18.7554 156.623 18.7554C155.903 18.7554 155.542 18.3874 155.542 17.6513V17.0599C154.625 18.1902 153.287 18.7554 151.529 18.7554H150.088ZM150.088 16.5473H151.529C152.163 16.5473 152.759 16.4904 153.317 16.3765C153.874 16.2538 154.35 16.0347 154.745 15.7193C155.148 15.4039 155.414 14.9526 155.542 14.3655V12.2363H150.088C149.239 12.2363 148.673 12.3809 148.39 12.6701C148.115 12.9592 147.978 13.5331 147.978 14.3918C147.978 15.2593 148.115 15.8376 148.39 16.1267C148.673 16.4071 149.239 16.5473 150.088 16.5473Z" fill="white"/>
<path d="M173.961 18.7554C172.872 18.7554 172.01 18.5276 171.375 18.0719C170.74 17.6075 170.333 16.9153 170.153 15.9953C170.093 15.6273 170.162 15.3381 170.359 15.1278C170.565 14.9176 170.848 14.8124 171.208 14.8124C171.559 14.8124 171.812 14.9044 171.967 15.0884C172.13 15.2637 172.263 15.5309 172.366 15.8902C172.469 16.153 172.64 16.3283 172.88 16.4159C173.129 16.5035 173.489 16.5473 173.961 16.5473H178.181C178.85 16.5473 179.3 16.4378 179.531 16.2187C179.763 15.9909 179.879 15.5221 179.879 14.8124C179.879 14.1114 179.763 13.647 179.531 13.4192C179.3 13.1914 178.85 13.0775 178.181 13.0775H174.038C172.803 13.0775 171.873 12.7577 171.246 12.1181C170.62 11.4784 170.307 10.5277 170.307 9.26597C170.307 7.97794 170.612 7.01848 171.221 6.38761C171.838 5.74797 172.777 5.42815 174.038 5.42815H178.052C180.067 5.42815 181.26 6.2956 181.628 8.03051C181.697 8.39852 181.628 8.68329 181.423 8.88482C181.217 9.08635 180.934 9.18711 180.573 9.18711C180.239 9.18711 179.99 9.09949 179.827 8.92425C179.664 8.74024 179.536 8.48614 179.441 8.16194C179.338 7.95165 179.18 7.81145 178.965 7.74136C178.76 7.67126 178.455 7.63621 178.052 7.63621H174.038C173.386 7.63621 172.962 7.73698 172.764 7.93851C172.567 8.14004 172.469 8.58252 172.469 9.26597C172.469 9.89685 172.572 10.3218 172.777 10.5409C172.992 10.7599 173.412 10.8694 174.038 10.8694H178.181C179.467 10.8694 180.432 11.198 181.075 11.8552C181.718 12.5123 182.04 13.4981 182.04 14.8124C182.04 16.1355 181.718 17.1256 181.075 17.7828C180.432 18.4312 179.467 18.7554 178.181 18.7554H173.961Z" fill="white"/>
<path d="M196.263 12.9986V13.6295C196.263 14.7598 196.465 15.5309 196.868 15.9427C197.271 16.3458 198.03 16.5473 199.145 16.5473H201.255C202.129 16.5473 202.777 16.4641 203.197 16.2976C203.617 16.1311 203.896 15.8376 204.033 15.417C204.128 15.084 204.256 14.8299 204.419 14.6547C204.591 14.4794 204.848 14.3918 205.191 14.3918C205.551 14.3918 205.826 14.4882 206.015 14.681C206.203 14.8737 206.263 15.1541 206.195 15.5221C206.006 16.6087 205.5 17.4192 204.677 17.9536C203.853 18.4881 202.713 18.7554 201.255 18.7554H199.145C197.438 18.7554 196.169 18.3348 195.337 17.4936C194.513 16.6525 194.102 15.3644 194.102 13.6295V10.5803C194.102 8.80158 194.513 7.49602 195.337 6.66361C196.169 5.82245 197.438 5.41063 199.145 5.42815H201.255C202.97 5.42815 204.239 5.84873 205.063 6.6899C205.886 7.5223 206.298 8.8191 206.298 10.5803V11.8946C206.298 12.6306 205.937 12.9986 205.217 12.9986H196.263ZM199.145 7.63621C198.03 7.61869 197.271 7.81584 196.868 8.22766C196.465 8.63948 196.263 9.42369 196.263 10.5803V10.7906H204.136V10.5803C204.136 9.43245 203.935 8.657 203.532 8.25394C203.137 7.84212 202.378 7.63621 201.255 7.63621H199.145Z" fill="white"/>
</svg>
