<svg width="22" height="22" viewBox="0 0 22 22" fill="none" xmlns="http://www.w3.org/2000/svg">
<path d="M22 11C22 17.0751 17.0751 22 11 22C4.92487 22 0 17.0751 0 11C0 4.92487 4.92487 0 11 0C17.0751 0 22 4.92487 22 11Z" fill="#0077CC"/>
<path d="M10.2707 8.47C11.0239 8.47 11.5639 8.6513 11.8908 9.01389C12.2216 9.37648 12.387 9.97741 12.387 10.8167V14.1533C12.387 14.4956 12.2196 14.6667 11.8848 14.6667C11.55 14.6667 11.3826 14.4956 11.3826 14.1533V10.8167C11.3826 10.3522 11.2949 10.0161 11.1196 9.80833C10.9482 9.60055 10.6652 9.49667 10.2707 9.49667H9.78043C9.32609 9.49667 9.00127 9.60055 8.80598 9.80833C8.61069 10.0161 8.51304 10.3522 8.51304 10.8167V14.1533C8.51304 14.4956 8.34565 14.6667 8.01087 14.6667C7.67609 14.6667 7.5087 14.4956 7.5087 14.1533V10.8167C7.5087 10.3522 7.42101 10.0161 7.24565 9.80833C7.07428 9.60055 6.7913 9.49667 6.39674 9.49667H5.90652C5.45217 9.49667 5.12735 9.60055 4.93207 9.80833C4.73678 10.0161 4.63913 10.3522 4.63913 10.8167V14.1533C4.63913 14.4956 4.47174 14.6667 4.13696 14.6667C3.80217 14.6667 3.63478 14.4956 3.63478 14.1533V8.98333C3.63478 8.64111 3.80217 8.47 4.13696 8.47C4.47174 8.47 4.63913 8.64111 4.63913 8.98333V9.26444C4.85036 8.98333 5.08152 8.78167 5.33261 8.65944C5.58768 8.53315 5.89058 8.47 6.2413 8.47H6.39674C6.89094 8.47 7.27953 8.5413 7.5625 8.68389C7.84547 8.82241 8.06069 9.04852 8.20815 9.36222C8.41938 9.04037 8.64257 8.81222 8.87772 8.67778C9.11685 8.53926 9.41775 8.47 9.78043 8.47H10.2707Z" fill="white"/>
<path d="M15.2528 17.1111C14.918 17.1111 14.7506 16.94 14.7506 16.5978V8.98333C14.7506 8.64111 14.918 8.47 15.2528 8.47C15.5876 8.47 15.755 8.64111 15.755 8.98333V9.13611C15.9702 8.91611 16.2352 8.75111 16.5501 8.64111C16.8689 8.52704 17.2256 8.47 17.6202 8.47H18.0745C18.8716 8.47 19.4615 8.66556 19.8441 9.05667C20.2267 9.44778 20.418 10.0507 20.418 10.8656V12.2711C20.418 13.0819 20.2267 13.6848 19.8441 14.08C19.4615 14.4711 18.8716 14.6667 18.0745 14.6667H15.755V16.5978C15.755 16.94 15.5876 17.1111 15.2528 17.1111ZM15.755 13.64H18.0745C18.5966 13.64 18.9493 13.5443 19.1327 13.3528C19.32 13.1613 19.4137 12.8007 19.4137 12.2711V10.8656C19.4137 10.3319 19.32 9.9713 19.1327 9.78389C18.9493 9.59241 18.5966 9.49667 18.0745 9.49667H17.6202C17.122 9.49667 16.6916 9.55778 16.3289 9.68C15.9662 9.80222 15.7749 9.99574 15.755 10.2606V13.64Z" fill="white"/>
</svg>
